<svg width="22" height="22" viewBox="0 0 22 22" fill="none" xmlns="http://www.w3.org/2000/svg">
<path d="M18.6683 21.0001H3.33178C2.04393 21.0001 1 19.9561 1 18.6683V3.33178C1 2.04393 2.04393 1 3.33178 1H18.668C19.9559 1 20.9998 2.04393 20.9998 3.33178V18.668C21.0001 19.9561 19.9561 21.0001 18.6683 21.0001Z" fill="#1D1E1E" stroke="white" stroke-width="0.0233646" stroke-miterlimit="10"/>
<path d="M4.07246 4.48438L9.44794 11.672L4.03858 17.5157H5.25611L9.9921 12.3994L13.8185 17.5157H17.9615L12.2835 9.92388L17.3185 4.48438H16.101L11.7395 9.1963L8.21546 4.48438H4.07246ZM5.86288 5.38134H7.76616L16.1709 16.619H14.2676L5.86288 5.38134Z" fill="white"/>
</svg>
